<svg width="843" height="88" viewBox="0 0 843 88" fill="none" xmlns="http://www.w3.org/2000/svg">
<path fill-rule="evenodd" clip-rule="evenodd" d="M15.4286 4C12.3975 4 9.49062 5.20408 7.34735 7.34735C5.20408 9.49062 4 12.3975 4 15.4286V72.5714C4 75.6025 5.20408 78.5094 7.34735 80.6526C9.49062 82.7959 12.3975 84 15.4286 84H72.5714C75.6025 84 78.5094 82.7959 80.6526 80.6526C82.7959 78.5094 84 75.6025 84 72.5714V15.4286C84 12.3975 82.7959 9.49062 80.6526 7.34735C78.5094 5.20408 75.6025 4 72.5714 4H15.4286Z" fill="url(#paint0_linear_12_800)"/>
<path fill-rule="evenodd" clip-rule="evenodd" d="M12.5714 0C9.23728 0 6.03969 1.32449 3.68209 3.68209C1.32449 6.03969 0 9.23728 0 12.5714V75.4286C0 78.7627 1.32449 81.9603 3.68209 84.3179C6.03969 86.6755 9.23728 88 12.5714 88H75.4286C78.7627 88 81.9603 86.6755 84.3179 84.3179C86.6755 81.9603 88 78.7627 88 75.4286V12.5714C88 9.23728 86.6755 6.03969 84.3179 3.68209C81.9603 1.32449 78.7627 0 75.4286 0H12.5714ZM69.1429 25.1429C69.1429 23.4758 68.4806 21.877 67.3018 20.6982C66.123 19.5194 64.5242 18.8571 62.8571 18.8571C61.1901 18.8571 59.5913 19.5194 58.4125 20.6982C57.2337 21.877 56.5714 23.4758 56.5714 25.1429V62.8571C56.5714 64.5242 57.2337 66.123 58.4125 67.3018C59.5913 68.4806 61.1901 69.1429 62.8571 69.1429C64.5242 69.1429 66.123 68.4806 67.3018 67.3018C68.4806 66.123 69.1429 64.5242 69.1429 62.8571V25.1429ZM50.2857 37.7143C50.2857 36.0472 49.6235 34.4484 48.4447 33.2696C47.2659 32.0908 45.6671 31.4286 44 31.4286C42.3329 31.4286 40.7341 32.0908 39.5553 33.2696C38.3765 34.4484 37.7143 36.0472 37.7143 37.7143V62.8571C37.7143 64.5242 38.3765 66.123 39.5553 67.3018C40.7341 68.4806 42.3329 69.1429 44 69.1429C45.6671 69.1429 47.2659 68.4806 48.4447 67.3018C49.6235 66.123 50.2857 64.5242 50.2857 62.8571V37.7143ZM31.4286 56.5714C31.4286 54.9044 30.7663 53.3056 29.5875 52.1268C28.4087 50.948 26.8099 50.2857 25.1429 50.2857C23.4758 50.2857 21.877 50.948 20.6982 52.1268C19.5194 53.3056 18.8571 54.9044 18.8571 56.5714V62.8571C18.8571 64.5242 19.5194 66.123 20.6982 67.3018C21.877 68.4806 23.4758 69.1429 25.1429 69.1429C26.8099 69.1429 28.4087 68.4806 29.5875 67.3018C30.7663 66.123 31.4286 64.5242 31.4286 62.8571V56.5714Z" fill="url(#paint1_linear_12_800)"/>
<path d="M143.104 18.6H132.64V48H126.184V18.6H115.72V13.296H143.104V18.6ZM152.215 26.016C153.175 25.12 154.231 24.392 155.383 23.832C156.535 23.272 157.887 22.992 159.439 22.992C160.783 22.992 161.975 23.224 163.015 23.688C164.055 24.136 164.919 24.776 165.607 25.608C166.311 26.424 166.839 27.408 167.191 28.56C167.559 29.696 167.743 30.952 167.743 32.328V48H161.815V32.328C161.815 30.824 161.471 29.664 160.783 28.848C160.095 28.016 159.047 27.6 157.639 27.6C156.615 27.6 155.655 27.832 154.759 28.296C153.863 28.76 153.015 29.392 152.215 30.192V48H146.287V12.336H152.215V26.016ZM189.245 32.856C189.245 32.088 189.133 31.368 188.909 30.696C188.701 30.008 188.381 29.408 187.949 28.896C187.517 28.384 186.965 27.984 186.293 27.696C185.637 27.392 184.869 27.24 183.989 27.24C182.277 27.24 180.925 27.728 179.933 28.704C178.957 29.68 178.333 31.064 178.061 32.856H189.245ZM177.941 36.432C178.037 37.696 178.261 38.792 178.613 39.72C178.965 40.632 179.429 41.392 180.005 42C180.581 42.592 181.261 43.04 182.045 43.344C182.845 43.632 183.725 43.776 184.685 43.776C185.645 43.776 186.469 43.664 187.157 43.44C187.861 43.216 188.469 42.968 188.981 42.696C189.509 42.424 189.965 42.176 190.349 41.952C190.749 41.728 191.133 41.616 191.501 41.616C191.997 41.616 192.365 41.8 192.605 42.168L194.309 44.328C193.653 45.096 192.917 45.744 192.101 46.272C191.285 46.784 190.429 47.2 189.533 47.52C188.653 47.824 187.749 48.04 186.821 48.168C185.909 48.296 185.021 48.36 184.157 48.36C182.445 48.36 180.853 48.08 179.381 47.52C177.909 46.944 176.629 46.104 175.541 45C174.453 43.88 173.597 42.504 172.973 40.872C172.349 39.224 172.037 37.32 172.037 35.16C172.037 33.48 172.309 31.904 172.853 30.432C173.397 28.944 174.173 27.656 175.181 26.568C176.205 25.464 177.445 24.592 178.901 23.952C180.373 23.312 182.029 22.992 183.869 22.992C185.421 22.992 186.853 23.24 188.165 23.736C189.477 24.232 190.605 24.96 191.549 25.92C192.493 26.864 193.229 28.032 193.757 29.424C194.301 30.8 194.573 32.376 194.573 34.152C194.573 35.048 194.477 35.656 194.285 35.976C194.093 36.28 193.725 36.432 193.181 36.432H177.941ZM218.11 18.432V28.704H231.118V33.864H218.11V48H211.63V13.296H233.518V18.432H218.11ZM241.551 27.648C242.319 26.176 243.231 25.024 244.287 24.192C245.343 23.344 246.591 22.92 248.031 22.92C249.167 22.92 250.079 23.168 250.767 23.664L250.383 28.104C250.303 28.392 250.183 28.6 250.023 28.728C249.879 28.84 249.679 28.896 249.423 28.896C249.183 28.896 248.823 28.856 248.343 28.776C247.879 28.696 247.423 28.656 246.975 28.656C246.319 28.656 245.735 28.752 245.223 28.944C244.711 29.136 244.247 29.416 243.831 29.784C243.431 30.136 243.071 30.568 242.751 31.08C242.447 31.592 242.159 32.176 241.887 32.832V48H235.959V23.376H239.439C240.047 23.376 240.471 23.488 240.711 23.712C240.951 23.92 241.111 24.304 241.191 24.864L241.551 27.648ZM264.058 22.992C265.882 22.992 267.538 23.288 269.026 23.88C270.53 24.472 271.81 25.312 272.866 26.4C273.938 27.488 274.762 28.816 275.338 30.384C275.914 31.952 276.202 33.704 276.202 35.64C276.202 37.592 275.914 39.352 275.338 40.92C274.762 42.488 273.938 43.824 272.866 44.928C271.81 46.032 270.53 46.88 269.026 47.472C267.538 48.064 265.882 48.36 264.058 48.36C262.218 48.36 260.546 48.064 259.042 47.472C257.538 46.88 256.25 46.032 255.178 44.928C254.122 43.824 253.298 42.488 252.706 40.92C252.13 39.352 251.842 37.592 251.842 35.64C251.842 33.704 252.13 31.952 252.706 30.384C253.298 28.816 254.122 27.488 255.178 26.4C256.25 25.312 257.538 24.472 259.042 23.88C260.546 23.288 262.218 22.992 264.058 22.992ZM264.058 43.8C266.106 43.8 267.618 43.112 268.594 41.736C269.586 40.36 270.082 38.344 270.082 35.688C270.082 33.032 269.586 31.008 268.594 29.616C267.618 28.224 266.106 27.528 264.058 27.528C261.978 27.528 260.434 28.232 259.426 29.64C258.434 31.032 257.938 33.048 257.938 35.688C257.938 38.328 258.434 40.344 259.426 41.736C260.434 43.112 261.978 43.8 264.058 43.8ZM286.269 26.4C286.765 25.904 287.285 25.448 287.829 25.032C288.389 24.6 288.973 24.24 289.581 23.952C290.205 23.648 290.869 23.416 291.573 23.256C292.277 23.08 293.045 22.992 293.877 22.992C295.221 22.992 296.413 23.224 297.453 23.688C298.493 24.136 299.357 24.776 300.045 25.608C300.749 26.424 301.277 27.408 301.629 28.56C301.997 29.696 302.181 30.952 302.181 32.328V48H296.253V32.328C296.253 30.824 295.909 29.664 295.221 28.848C294.533 28.016 293.485 27.6 292.077 27.6C291.053 27.6 290.093 27.832 289.197 28.296C288.301 28.76 287.453 29.392 286.653 30.192V48H280.725V23.376H284.349C285.117 23.376 285.621 23.736 285.861 24.456L286.269 26.4ZM315.699 48.384C313.555 48.384 311.907 47.784 310.755 46.584C309.619 45.368 309.051 43.696 309.051 41.568V27.816H306.531C306.211 27.816 305.939 27.712 305.715 27.504C305.491 27.296 305.379 26.984 305.379 26.568V24.216L309.339 23.568L310.587 16.848C310.667 16.528 310.819 16.28 311.043 16.104C311.267 15.928 311.555 15.84 311.907 15.84H314.979V23.592H321.555V27.816H314.979V41.16C314.979 41.928 315.163 42.528 315.531 42.96C315.915 43.392 316.435 43.608 317.091 43.608C317.459 43.608 317.763 43.568 318.003 43.488C318.259 43.392 318.475 43.296 318.651 43.2C318.843 43.104 319.011 43.016 319.155 42.936C319.299 42.84 319.443 42.792 319.587 42.792C319.763 42.792 319.907 42.84 320.019 42.936C320.131 43.016 320.251 43.144 320.379 43.32L322.155 46.2C321.291 46.92 320.299 47.464 319.179 47.832C318.059 48.2 316.899 48.384 315.699 48.384ZM341.026 32.856C341.026 32.088 340.914 31.368 340.69 30.696C340.482 30.008 340.162 29.408 339.73 28.896C339.298 28.384 338.746 27.984 338.074 27.696C337.418 27.392 336.65 27.24 335.77 27.24C334.058 27.24 332.706 27.728 331.714 28.704C330.738 29.68 330.114 31.064 329.842 32.856H341.026ZM329.722 36.432C329.818 37.696 330.042 38.792 330.394 39.72C330.746 40.632 331.21 41.392 331.786 42C332.362 42.592 333.042 43.04 333.826 43.344C334.626 43.632 335.506 43.776 336.466 43.776C337.426 43.776 338.25 43.664 338.938 43.44C339.642 43.216 340.25 42.968 340.762 42.696C341.29 42.424 341.746 42.176 342.13 41.952C342.53 41.728 342.914 41.616 343.282 41.616C343.778 41.616 344.146 41.8 344.386 42.168L346.09 44.328C345.434 45.096 344.698 45.744 343.882 46.272C343.066 46.784 342.21 47.2 341.314 47.52C340.434 47.824 339.53 48.04 338.602 48.168C337.69 48.296 336.802 48.36 335.938 48.36C334.226 48.36 332.634 48.08 331.162 47.52C329.69 46.944 328.41 46.104 327.322 45C326.234 43.88 325.378 42.504 324.754 40.872C324.13 39.224 323.818 37.32 323.818 35.16C323.818 33.48 324.09 31.904 324.634 30.432C325.178 28.944 325.954 27.656 326.962 26.568C327.986 25.464 329.226 24.592 330.682 23.952C332.154 23.312 333.81 22.992 335.65 22.992C337.202 22.992 338.634 23.24 339.946 23.736C341.258 24.232 342.386 24.96 343.33 25.92C344.274 26.864 345.01 28.032 345.538 29.424C346.082 30.8 346.354 32.376 346.354 34.152C346.354 35.048 346.258 35.656 346.066 35.976C345.874 36.28 345.506 36.432 344.962 36.432H329.722ZM356.347 26.4C356.843 25.904 357.363 25.448 357.907 25.032C358.467 24.6 359.051 24.24 359.659 23.952C360.283 23.648 360.947 23.416 361.651 23.256C362.355 23.08 363.123 22.992 363.955 22.992C365.299 22.992 366.491 23.224 367.531 23.688C368.571 24.136 369.435 24.776 370.123 25.608C370.827 26.424 371.355 27.408 371.707 28.56C372.075 29.696 372.259 30.952 372.259 32.328V48H366.331V32.328C366.331 30.824 365.987 29.664 365.299 28.848C364.611 28.016 363.563 27.6 362.155 27.6C361.131 27.6 360.171 27.832 359.275 28.296C358.379 28.76 357.531 29.392 356.731 30.192V48H350.803V23.376H354.427C355.195 23.376 355.699 23.736 355.939 24.456L356.347 26.4ZM393.353 29.664C392.681 28.848 391.945 28.272 391.145 27.936C390.361 27.6 389.513 27.432 388.601 27.432C387.705 27.432 386.897 27.6 386.177 27.936C385.457 28.272 384.841 28.784 384.329 29.472C383.817 30.144 383.425 31.008 383.153 32.064C382.881 33.104 382.745 34.336 382.745 35.76C382.745 37.2 382.857 38.424 383.081 39.432C383.321 40.424 383.657 41.24 384.089 41.88C384.521 42.504 385.049 42.96 385.673 43.248C386.297 43.52 386.993 43.656 387.761 43.656C388.993 43.656 390.041 43.4 390.905 42.888C391.769 42.376 392.585 41.648 393.353 40.704V29.664ZM399.281 12.336V48H395.657C394.873 48 394.377 47.64 394.169 46.92L393.665 44.544C392.673 45.68 391.529 46.6 390.233 47.304C388.953 48.008 387.457 48.36 385.745 48.36C384.401 48.36 383.169 48.08 382.049 47.52C380.929 46.96 379.961 46.152 379.145 45.096C378.345 44.024 377.721 42.704 377.273 41.136C376.841 39.568 376.625 37.776 376.625 35.76C376.625 33.936 376.873 32.24 377.369 30.672C377.865 29.104 378.577 27.744 379.505 26.592C380.433 25.44 381.545 24.544 382.841 23.904C384.137 23.248 385.593 22.92 387.209 22.92C388.585 22.92 389.761 23.136 390.737 23.568C391.713 24 392.585 24.584 393.353 25.32V12.336H399.281ZM434.481 34.896L430.257 23.352C430.049 22.84 429.833 22.232 429.609 21.528C429.385 20.824 429.161 20.064 428.937 19.248C428.729 20.064 428.513 20.832 428.289 21.552C428.065 22.256 427.849 22.872 427.641 23.4L423.441 34.896H434.481ZM445.881 48H440.889C440.329 48 439.873 47.864 439.521 47.592C439.169 47.304 438.905 46.952 438.729 46.536L436.137 39.456H421.761L419.169 46.536C419.041 46.904 418.793 47.24 418.425 47.544C418.057 47.848 417.601 48 417.057 48H412.017L425.673 13.296H432.249L445.881 48ZM454.419 41.616C455.091 42.432 455.819 43.008 456.603 43.344C457.403 43.68 458.267 43.848 459.195 43.848C460.091 43.848 460.899 43.68 461.619 43.344C462.339 43.008 462.947 42.496 463.443 41.808C463.955 41.12 464.347 40.256 464.619 39.216C464.891 38.16 465.027 36.92 465.027 35.496C465.027 34.056 464.907 32.84 464.667 31.848C464.443 30.84 464.115 30.024 463.683 29.4C463.251 28.776 462.723 28.32 462.099 28.032C461.491 27.744 460.795 27.6 460.011 27.6C458.779 27.6 457.731 27.864 456.867 28.392C456.003 28.904 455.187 29.632 454.419 30.576V41.616ZM454.107 26.736C455.115 25.6 456.259 24.68 457.539 23.976C458.819 23.272 460.323 22.92 462.051 22.92C463.395 22.92 464.619 23.2 465.723 23.76C466.843 24.32 467.803 25.136 468.603 26.208C469.419 27.264 470.043 28.576 470.475 30.144C470.923 31.696 471.147 33.48 471.147 35.496C471.147 37.336 470.899 39.04 470.403 40.608C469.907 42.176 469.195 43.536 468.267 44.688C467.355 45.84 466.243 46.744 464.931 47.4C463.635 48.04 462.179 48.36 460.562 48.36C459.187 48.36 458.011 48.152 457.035 47.736C456.059 47.304 455.187 46.712 454.419 45.96V56.04H448.491V23.376H452.115C452.883 23.376 453.387 23.736 453.627 24.456L454.107 26.736ZM481.7 41.616C482.372 42.432 483.1 43.008 483.884 43.344C484.684 43.68 485.548 43.848 486.476 43.848C487.372 43.848 488.18 43.68 488.9 43.344C489.62 43.008 490.228 42.496 490.724 41.808C491.236 41.12 491.628 40.256 491.9 39.216C492.172 38.16 492.308 36.92 492.308 35.496C492.308 34.056 492.188 32.84 491.948 31.848C491.724 30.84 491.396 30.024 490.964 29.4C490.532 28.776 490.004 28.32 489.38 28.032C488.772 27.744 488.076 27.6 487.292 27.6C486.06 27.6 485.012 27.864 484.148 28.392C483.284 28.904 482.468 29.632 481.7 30.576V41.616ZM481.388 26.736C482.396 25.6 483.54 24.68 484.82 23.976C486.1 23.272 487.604 22.92 489.332 22.92C490.676 22.92 491.9 23.2 493.004 23.76C494.124 24.32 495.084 25.136 495.884 26.208C496.7 27.264 497.324 28.576 497.756 30.144C498.204 31.696 498.428 33.48 498.428 35.496C498.428 37.336 498.18 39.04 497.684 40.608C497.188 42.176 496.476 43.536 495.548 44.688C494.636 45.84 493.524 46.744 492.212 47.4C490.916 48.04 489.46 48.36 487.844 48.36C486.468 48.36 485.292 48.152 484.316 47.736C483.34 47.304 482.468 46.712 481.7 45.96V56.04H475.772V23.376H479.396C480.164 23.376 480.668 23.736 480.908 24.456L481.388 26.736ZM528.645 42.96C529.845 42.96 530.853 42.816 531.669 42.528C532.485 42.24 533.133 41.856 533.613 41.376C534.109 40.896 534.461 40.336 534.669 39.696C534.893 39.056 535.005 38.376 535.005 37.656C535.005 36.904 534.885 36.232 534.645 35.64C534.405 35.032 534.029 34.52 533.517 34.104C533.005 33.672 532.341 33.344 531.525 33.12C530.725 32.896 529.757 32.784 528.621 32.784H522.117V42.96H528.645ZM522.117 18.288V28.32H527.253C529.461 28.32 531.125 27.92 532.245 27.12C533.381 26.32 533.949 25.048 533.949 23.304C533.949 21.496 533.437 20.208 532.413 19.44C531.389 18.672 529.789 18.288 527.613 18.288H522.117ZM527.613 13.296C529.885 13.296 531.829 13.512 533.445 13.944C535.061 14.376 536.381 14.992 537.405 15.792C538.445 16.592 539.205 17.56 539.685 18.696C540.165 19.832 540.405 21.112 540.405 22.536C540.405 23.352 540.285 24.136 540.045 24.888C539.805 25.624 539.429 26.32 538.917 26.976C538.421 27.616 537.781 28.2 536.997 28.728C536.229 29.256 535.309 29.704 534.237 30.072C539.005 31.144 541.389 33.72 541.389 37.8C541.389 39.272 541.109 40.632 540.549 41.88C539.989 43.128 539.173 44.208 538.101 45.12C537.029 46.016 535.709 46.72 534.141 47.232C532.573 47.744 530.781 48 528.765 48H515.661V13.296H527.613ZM561.855 32.856C561.855 32.088 561.743 31.368 561.519 30.696C561.311 30.008 560.991 29.408 560.559 28.896C560.127 28.384 559.575 27.984 558.903 27.696C558.247 27.392 557.479 27.24 556.599 27.24C554.887 27.24 553.535 27.728 552.543 28.704C551.567 29.68 550.943 31.064 550.671 32.856H561.855ZM550.551 36.432C550.647 37.696 550.871 38.792 551.223 39.72C551.575 40.632 552.039 41.392 552.615 42C553.191 42.592 553.871 43.04 554.655 43.344C555.455 43.632 556.335 43.776 557.295 43.776C558.255 43.776 559.079 43.664 559.767 43.44C560.471 43.216 561.079 42.968 561.591 42.696C562.119 42.424 562.575 42.176 562.959 41.952C563.359 41.728 563.743 41.616 564.111 41.616C564.607 41.616 564.975 41.8 565.215 42.168L566.919 44.328C566.263 45.096 565.527 45.744 564.711 46.272C563.895 46.784 563.039 47.2 562.143 47.52C561.263 47.824 560.359 48.04 559.431 48.168C558.519 48.296 557.631 48.36 556.767 48.36C555.055 48.36 553.463 48.08 551.991 47.52C550.519 46.944 549.239 46.104 548.151 45C547.063 43.88 546.207 42.504 545.583 40.872C544.959 39.224 544.646 37.32 544.646 35.16C544.646 33.48 544.919 31.904 545.463 30.432C546.007 28.944 546.783 27.656 547.791 26.568C548.815 25.464 550.055 24.592 551.511 23.952C552.983 23.312 554.639 22.992 556.479 22.992C558.031 22.992 559.463 23.24 560.775 23.736C562.087 24.232 563.215 24.96 564.159 25.92C565.103 26.864 565.839 28.032 566.367 29.424C566.911 30.8 567.182 32.376 567.182 34.152C567.182 35.048 567.087 35.656 566.895 35.976C566.703 36.28 566.335 36.432 565.791 36.432H550.551ZM577.175 26.4C577.671 25.904 578.191 25.448 578.735 25.032C579.295 24.6 579.879 24.24 580.487 23.952C581.111 23.648 581.775 23.416 582.479 23.256C583.183 23.08 583.951 22.992 584.783 22.992C586.127 22.992 587.319 23.224 588.359 23.688C589.399 24.136 590.263 24.776 590.951 25.608C591.655 26.424 592.183 27.408 592.535 28.56C592.903 29.696 593.087 30.952 593.087 32.328V48H587.159V32.328C587.159 30.824 586.815 29.664 586.127 28.848C585.439 28.016 584.391 27.6 582.983 27.6C581.959 27.6 580.999 27.832 580.103 28.296C579.207 28.76 578.359 29.392 577.559 30.192V48H571.631V23.376H575.255C576.023 23.376 576.527 23.736 576.767 24.456L577.175 26.4ZM616.365 28.584C616.189 28.808 616.013 28.984 615.837 29.112C615.677 29.24 615.437 29.304 615.117 29.304C614.813 29.304 614.517 29.216 614.229 29.04C613.941 28.848 613.597 28.64 613.197 28.416C612.797 28.176 612.317 27.968 611.757 27.792C611.213 27.6 610.533 27.504 609.717 27.504C608.677 27.504 607.765 27.696 606.981 28.08C606.197 28.448 605.541 28.984 605.013 29.688C604.501 30.392 604.117 31.248 603.861 32.256C603.605 33.248 603.477 34.376 603.477 35.64C603.477 36.952 603.613 38.12 603.885 39.144C604.173 40.168 604.581 41.032 605.109 41.736C605.637 42.424 606.277 42.952 607.029 43.32C607.781 43.672 608.629 43.848 609.573 43.848C610.517 43.848 611.277 43.736 611.853 43.512C612.445 43.272 612.941 43.016 613.341 42.744C613.741 42.456 614.085 42.2 614.373 41.976C614.677 41.736 615.013 41.616 615.381 41.616C615.861 41.616 616.221 41.8 616.461 42.168L618.165 44.328C617.509 45.096 616.797 45.744 616.029 46.272C615.261 46.784 614.461 47.2 613.629 47.52C612.813 47.824 611.965 48.04 611.085 48.168C610.221 48.296 609.357 48.36 608.493 48.36C606.973 48.36 605.541 48.08 604.197 47.52C602.853 46.944 601.677 46.112 600.669 45.024C599.661 43.936 598.861 42.608 598.269 41.04C597.693 39.456 597.405 37.656 597.405 35.64C597.405 33.832 597.661 32.16 598.173 30.624C598.701 29.072 599.469 27.736 600.477 26.616C601.485 25.48 602.733 24.592 604.221 23.952C605.709 23.312 607.421 22.992 609.357 22.992C611.197 22.992 612.805 23.288 614.181 23.88C615.573 24.472 616.821 25.32 617.925 26.424L616.365 28.584ZM627.809 26.016C628.769 25.12 629.825 24.392 630.977 23.832C632.129 23.272 633.481 22.992 635.033 22.992C636.377 22.992 637.569 23.224 638.609 23.688C639.649 24.136 640.513 24.776 641.201 25.608C641.905 26.424 642.433 27.408 642.785 28.56C643.153 29.696 643.337 30.952 643.337 32.328V48H637.409V32.328C637.409 30.824 637.065 29.664 636.377 28.848C635.689 28.016 634.641 27.6 633.233 27.6C632.209 27.6 631.249 27.832 630.353 28.296C629.457 28.76 628.609 29.392 627.809 30.192V48H621.881V12.336H627.809V26.016ZM648.975 48V23.376H652.599C653.367 23.376 653.871 23.736 654.111 24.456L654.495 26.28C654.927 25.8 655.375 25.36 655.839 24.96C656.319 24.56 656.823 24.216 657.351 23.928C657.895 23.64 658.471 23.416 659.079 23.256C659.703 23.08 660.383 22.992 661.119 22.992C662.671 22.992 663.943 23.416 664.935 24.264C665.943 25.096 666.695 26.208 667.191 27.6C667.575 26.784 668.055 26.088 668.631 25.512C669.207 24.92 669.839 24.44 670.527 24.072C671.215 23.704 671.943 23.432 672.711 23.256C673.495 23.08 674.279 22.992 675.063 22.992C676.423 22.992 677.631 23.2 678.687 23.616C679.743 24.032 680.631 24.64 681.351 25.44C682.071 26.24 682.615 27.216 682.983 28.368C683.367 29.52 683.559 30.84 683.559 32.328V48H677.631V32.328C677.631 30.76 677.287 29.584 676.599 28.8C675.911 28 674.903 27.6 673.575 27.6C672.967 27.6 672.399 27.704 671.871 27.912C671.359 28.12 670.903 28.424 670.503 28.824C670.119 29.208 669.815 29.696 669.591 30.288C669.367 30.88 669.255 31.56 669.255 32.328V48H663.303V32.328C663.303 30.68 662.967 29.48 662.295 28.728C661.639 27.976 660.671 27.6 659.391 27.6C658.527 27.6 657.719 27.816 656.967 28.248C656.231 28.664 655.543 29.24 654.903 29.976V48H648.975ZM702.202 37.488C700.49 37.568 699.05 37.72 697.882 37.944C696.714 38.152 695.778 38.424 695.074 38.76C694.37 39.096 693.866 39.488 693.562 39.936C693.258 40.384 693.106 40.872 693.106 41.4C693.106 42.44 693.41 43.184 694.018 43.632C694.642 44.08 695.45 44.304 696.442 44.304C697.658 44.304 698.706 44.088 699.586 43.656C700.482 43.208 701.354 42.536 702.202 41.64V37.488ZM688.618 26.808C691.45 24.216 694.858 22.92 698.842 22.92C700.282 22.92 701.57 23.16 702.706 23.64C703.842 24.104 704.802 24.76 705.586 25.608C706.37 26.44 706.962 27.44 707.362 28.608C707.778 29.776 707.986 31.056 707.986 32.448V48H705.298C704.738 48 704.306 47.92 704.002 47.76C703.698 47.584 703.458 47.24 703.282 46.728L702.754 44.952C702.13 45.512 701.522 46.008 700.93 46.44C700.338 46.856 699.722 47.208 699.082 47.496C698.442 47.784 697.754 48 697.018 48.144C696.298 48.304 695.498 48.384 694.618 48.384C693.578 48.384 692.618 48.248 691.738 47.976C690.858 47.688 690.098 47.264 689.458 46.704C688.818 46.144 688.322 45.448 687.97 44.616C687.618 43.784 687.442 42.816 687.442 41.712C687.442 41.088 687.546 40.472 687.754 39.864C687.962 39.24 688.298 38.648 688.762 38.088C689.242 37.528 689.858 37 690.61 36.504C691.362 36.008 692.282 35.576 693.37 35.208C694.474 34.84 695.754 34.544 697.21 34.32C698.666 34.08 700.33 33.936 702.202 33.888V32.448C702.202 30.8 701.85 29.584 701.146 28.8C700.442 28 699.426 27.6 698.098 27.6C697.138 27.6 696.338 27.712 695.698 27.936C695.074 28.16 694.522 28.416 694.042 28.704C693.562 28.976 693.122 29.224 692.722 29.448C692.338 29.672 691.906 29.784 691.426 29.784C691.01 29.784 690.658 29.68 690.37 29.472C690.082 29.248 689.85 28.992 689.674 28.704L688.618 26.808ZM719.161 27.648C719.929 26.176 720.841 25.024 721.897 24.192C722.953 23.344 724.201 22.92 725.641 22.92C726.777 22.92 727.689 23.168 728.377 23.664L727.993 28.104C727.913 28.392 727.793 28.6 727.633 28.728C727.489 28.84 727.289 28.896 727.033 28.896C726.793 28.896 726.433 28.856 725.953 28.776C725.489 28.696 725.033 28.656 724.585 28.656C723.929 28.656 723.345 28.752 722.833 28.944C722.321 29.136 721.857 29.416 721.441 29.784C721.041 30.136 720.681 30.568 720.361 31.08C720.057 31.592 719.769 32.176 719.497 32.832V48H713.569V23.376H717.049C717.657 23.376 718.081 23.488 718.321 23.712C718.561 23.92 718.721 24.304 718.801 24.864L719.161 27.648ZM737.403 12.336V32.76H738.507C738.907 32.76 739.219 32.712 739.443 32.616C739.683 32.504 739.923 32.288 740.163 31.968L746.283 24.408C746.539 24.072 746.819 23.816 747.123 23.64C747.443 23.464 747.851 23.376 748.347 23.376H753.771L746.115 32.52C745.571 33.24 744.979 33.792 744.339 34.176C744.675 34.416 744.971 34.696 745.227 35.016C745.499 35.336 745.755 35.68 745.995 36.048L754.203 48H748.851C748.387 48 747.987 47.928 747.651 47.784C747.315 47.624 747.035 47.344 746.811 46.944L740.523 37.608C740.299 37.24 740.067 37 739.827 36.888C739.587 36.776 739.227 36.72 738.747 36.72H737.403V48H731.475V12.336H737.403Z" fill="white"/>
<path d="M127.096 80.336V83H116.932V65.648H120.16V80.336H127.096ZM132.641 83H129.401V65.648H132.641V83ZM150.83 74.3V81.32C149.95 81.968 149.01 82.444 148.01 82.748C147.018 83.044 145.954 83.192 144.818 83.192C143.402 83.192 142.118 82.972 140.966 82.532C139.822 82.092 138.842 81.48 138.026 80.696C137.218 79.912 136.594 78.976 136.154 77.888C135.714 76.8 135.494 75.612 135.494 74.324C135.494 73.02 135.706 71.824 136.13 70.736C136.554 69.648 137.154 68.712 137.93 67.928C138.714 67.144 139.662 66.536 140.774 66.104C141.886 65.672 143.134 65.456 144.518 65.456C145.222 65.456 145.878 65.512 146.486 65.624C147.102 65.736 147.67 65.892 148.19 66.092C148.718 66.284 149.198 66.52 149.63 66.8C150.062 67.08 150.458 67.388 150.818 67.724L149.894 69.188C149.75 69.42 149.562 69.564 149.33 69.62C149.098 69.668 148.846 69.608 148.574 69.44C148.31 69.288 148.046 69.136 147.782 68.984C147.518 68.832 147.222 68.7 146.894 68.588C146.574 68.476 146.21 68.384 145.802 68.312C145.402 68.24 144.938 68.204 144.41 68.204C143.554 68.204 142.778 68.348 142.082 68.636C141.394 68.924 140.806 69.336 140.318 69.872C139.83 70.408 139.454 71.052 139.19 71.804C138.926 72.556 138.794 73.396 138.794 74.324C138.794 75.316 138.934 76.204 139.214 76.988C139.502 77.764 139.902 78.424 140.414 78.968C140.934 79.504 141.558 79.916 142.286 80.204C143.014 80.484 143.826 80.624 144.722 80.624C145.362 80.624 145.934 80.556 146.438 80.42C146.942 80.284 147.434 80.1 147.914 79.868V76.724H145.73C145.522 76.724 145.358 76.668 145.238 76.556C145.126 76.436 145.07 76.292 145.07 76.124V74.3H150.83ZM168.568 65.648V83H165.328V75.416H157.18V83H153.94V65.648H157.18V73.112H165.328V65.648H168.568ZM184.552 68.3H179.32V83H176.092V68.3H170.86V65.648H184.552V68.3ZM201.451 65.648V83H198.211V75.416H190.063V83H186.823V65.648H190.063V73.112H198.211V65.648H201.451ZM221.863 74.324C221.863 75.596 221.651 76.776 221.227 77.864C220.811 78.944 220.219 79.88 219.451 80.672C218.683 81.464 217.759 82.084 216.679 82.532C215.599 82.972 214.399 83.192 213.079 83.192C211.767 83.192 210.571 82.972 209.491 82.532C208.411 82.084 207.483 81.464 206.707 80.672C205.939 79.88 205.343 78.944 204.919 77.864C204.495 76.776 204.283 75.596 204.283 74.324C204.283 73.052 204.495 71.876 204.919 70.796C205.343 69.708 205.939 68.768 206.707 67.976C207.483 67.184 208.411 66.568 209.491 66.128C210.571 65.68 211.767 65.456 213.079 65.456C213.959 65.456 214.787 65.56 215.563 65.768C216.339 65.968 217.051 66.256 217.699 66.632C218.347 67 218.927 67.452 219.439 67.988C219.959 68.516 220.399 69.108 220.759 69.764C221.119 70.42 221.391 71.132 221.575 71.9C221.767 72.668 221.863 73.476 221.863 74.324ZM218.563 74.324C218.563 73.372 218.435 72.52 218.179 71.768C217.923 71.008 217.559 70.364 217.087 69.836C216.615 69.308 216.039 68.904 215.359 68.624C214.687 68.344 213.927 68.204 213.079 68.204C212.231 68.204 211.467 68.344 210.787 68.624C210.115 68.904 209.539 69.308 209.059 69.836C208.587 70.364 208.223 71.008 207.967 71.768C207.711 72.52 207.583 73.372 207.583 74.324C207.583 75.276 207.711 76.132 207.967 76.892C208.223 77.644 208.587 78.284 209.059 78.812C209.539 79.332 210.115 79.732 210.787 80.012C211.467 80.292 212.231 80.432 213.079 80.432C213.927 80.432 214.687 80.292 215.359 80.012C216.039 79.732 216.615 79.332 217.087 78.812C217.559 78.284 217.923 77.644 218.179 76.892C218.435 76.132 218.563 75.276 218.563 74.324ZM231.682 80.396C232.306 80.396 232.862 80.292 233.35 80.084C233.846 79.876 234.262 79.584 234.598 79.208C234.934 78.832 235.19 78.376 235.366 77.84C235.55 77.304 235.642 76.704 235.642 76.04V65.648H238.87V76.04C238.87 77.072 238.702 78.028 238.366 78.908C238.038 79.78 237.562 80.536 236.938 81.176C236.322 81.808 235.57 82.304 234.682 82.664C233.794 83.016 232.794 83.192 231.682 83.192C230.562 83.192 229.558 83.016 228.67 82.664C227.782 82.304 227.026 81.808 226.402 81.176C225.786 80.536 225.31 79.78 224.974 78.908C224.646 78.028 224.482 77.072 224.482 76.04V65.648H227.71V76.028C227.71 76.692 227.798 77.292 227.974 77.828C228.158 78.364 228.418 78.824 228.754 79.208C229.098 79.584 229.514 79.876 230.002 80.084C230.498 80.292 231.058 80.396 231.682 80.396ZM251.75 68.804C251.654 68.972 251.55 69.096 251.438 69.176C251.334 69.248 251.202 69.284 251.042 69.284C250.874 69.284 250.69 69.224 250.49 69.104C250.298 68.976 250.066 68.836 249.794 68.684C249.522 68.532 249.202 68.396 248.834 68.276C248.474 68.148 248.046 68.084 247.55 68.084C247.102 68.084 246.71 68.14 246.374 68.252C246.038 68.356 245.754 68.504 245.522 68.696C245.298 68.888 245.13 69.12 245.018 69.392C244.906 69.656 244.85 69.948 244.85 70.268C244.85 70.676 244.962 71.016 245.186 71.288C245.418 71.56 245.722 71.792 246.098 71.984C246.474 72.176 246.902 72.348 247.382 72.5C247.862 72.652 248.354 72.816 248.858 72.992C249.362 73.16 249.854 73.36 250.334 73.592C250.814 73.816 251.242 74.104 251.618 74.456C251.994 74.8 252.294 75.224 252.518 75.728C252.75 76.232 252.866 76.844 252.866 77.564C252.866 78.348 252.73 79.084 252.458 79.772C252.194 80.452 251.802 81.048 251.282 81.56C250.77 82.064 250.142 82.464 249.398 82.76C248.654 83.048 247.802 83.192 246.842 83.192C246.29 83.192 245.746 83.136 245.21 83.024C244.674 82.92 244.158 82.768 243.662 82.568C243.174 82.368 242.714 82.128 242.282 81.848C241.85 81.568 241.466 81.256 241.13 80.912L242.078 79.364C242.158 79.252 242.262 79.16 242.39 79.088C242.518 79.008 242.654 78.968 242.798 78.968C242.998 78.968 243.214 79.052 243.446 79.22C243.678 79.38 243.954 79.56 244.274 79.76C244.594 79.96 244.966 80.144 245.39 80.312C245.822 80.472 246.338 80.552 246.938 80.552C247.858 80.552 248.57 80.336 249.074 79.904C249.578 79.464 249.83 78.836 249.83 78.02C249.83 77.564 249.714 77.192 249.482 76.904C249.258 76.616 248.958 76.376 248.582 76.184C248.206 75.984 247.778 75.816 247.298 75.68C246.818 75.544 246.33 75.396 245.834 75.236C245.338 75.076 244.85 74.884 244.37 74.66C243.89 74.436 243.462 74.144 243.086 73.784C242.71 73.424 242.406 72.976 242.174 72.44C241.95 71.896 241.838 71.228 241.838 70.436C241.838 69.804 241.962 69.188 242.21 68.588C242.466 67.988 242.834 67.456 243.314 66.992C243.794 66.528 244.386 66.156 245.09 65.876C245.794 65.596 246.602 65.456 247.514 65.456C248.538 65.456 249.482 65.616 250.346 65.936C251.21 66.256 251.946 66.704 252.554 67.28L251.75 68.804ZM258.922 68.216V73.028H264.994V75.512H258.922V80.42H266.626V83H255.682V65.648H266.626V68.216H258.922ZM281.815 80.48C282.415 80.48 282.919 80.408 283.327 80.264C283.735 80.12 284.059 79.928 284.299 79.688C284.547 79.448 284.723 79.168 284.827 78.848C284.939 78.528 284.995 78.188 284.995 77.828C284.995 77.452 284.935 77.116 284.815 76.82C284.695 76.516 284.507 76.26 284.251 76.052C283.995 75.836 283.663 75.672 283.255 75.56C282.855 75.448 282.371 75.392 281.803 75.392H278.551V80.48H281.815ZM278.551 68.144V73.16H281.119C282.223 73.16 283.055 72.96 283.615 72.56C284.183 72.16 284.467 71.524 284.467 70.652C284.467 69.748 284.211 69.104 283.699 68.72C283.187 68.336 282.387 68.144 281.299 68.144H278.551ZM281.299 65.648C282.435 65.648 283.407 65.756 284.215 65.972C285.023 66.188 285.683 66.496 286.195 66.896C286.715 67.296 287.095 67.78 287.335 68.348C287.575 68.916 287.695 69.556 287.695 70.268C287.695 70.676 287.635 71.068 287.515 71.444C287.395 71.812 287.207 72.16 286.951 72.488C286.703 72.808 286.383 73.1 285.991 73.364C285.607 73.628 285.147 73.852 284.611 74.036C286.995 74.572 288.187 75.86 288.187 77.9C288.187 78.636 288.047 79.316 287.767 79.94C287.487 80.564 287.079 81.104 286.543 81.56C286.007 82.008 285.347 82.36 284.563 82.616C283.779 82.872 282.883 83 281.875 83H275.323V65.648H281.299ZM294.36 68.216V73.028H300.432V75.512H294.36V80.42H302.064V83H291.12V65.648H302.064V68.216H294.36ZM319.552 65.648V83H317.896C317.64 83 317.424 82.96 317.248 82.88C317.08 82.792 316.916 82.648 316.756 82.448L307.696 70.88C307.744 71.408 307.768 71.896 307.768 72.344V83H304.924V65.648H306.616C306.752 65.648 306.868 65.656 306.964 65.672C307.068 65.68 307.156 65.704 307.228 65.744C307.308 65.776 307.384 65.828 307.456 65.9C307.528 65.964 307.608 66.052 307.696 66.164L316.792 77.78C316.768 77.5 316.748 77.224 316.732 76.952C316.716 76.68 316.708 76.428 316.708 76.196V65.648H319.552ZM335.332 78.908C335.508 78.908 335.664 78.976 335.8 79.112L337.072 80.492C336.368 81.364 335.5 82.032 334.468 82.496C333.444 82.96 332.212 83.192 330.772 83.192C329.484 83.192 328.324 82.972 327.292 82.532C326.268 82.092 325.392 81.48 324.664 80.696C323.936 79.912 323.376 78.976 322.984 77.888C322.6 76.8 322.408 75.612 322.408 74.324C322.408 73.02 322.616 71.828 323.032 70.748C323.448 69.66 324.032 68.724 324.784 67.94C325.544 67.156 326.448 66.548 327.496 66.116C328.544 65.676 329.704 65.456 330.976 65.456C332.24 65.456 333.36 65.664 334.336 66.08C335.32 66.496 336.156 67.04 336.844 67.712L335.764 69.212C335.7 69.308 335.616 69.392 335.512 69.464C335.416 69.536 335.28 69.572 335.104 69.572C334.984 69.572 334.86 69.54 334.732 69.476C334.604 69.404 334.464 69.32 334.312 69.224C334.16 69.12 333.984 69.008 333.784 68.888C333.584 68.768 333.352 68.66 333.088 68.564C332.824 68.46 332.516 68.376 332.164 68.312C331.82 68.24 331.42 68.204 330.964 68.204C330.188 68.204 329.476 68.344 328.828 68.624C328.188 68.896 327.636 69.296 327.172 69.824C326.708 70.344 326.348 70.984 326.092 71.744C325.836 72.496 325.708 73.356 325.708 74.324C325.708 75.3 325.844 76.168 326.116 76.928C326.396 77.688 326.772 78.328 327.244 78.848C327.716 79.368 328.272 79.768 328.912 80.048C329.552 80.32 330.24 80.456 330.976 80.456C331.416 80.456 331.812 80.432 332.164 80.384C332.524 80.336 332.852 80.26 333.148 80.156C333.452 80.052 333.736 79.92 334 79.76C334.272 79.592 334.54 79.388 334.804 79.148C334.884 79.076 334.968 79.02 335.056 78.98C335.144 78.932 335.236 78.908 335.332 78.908ZM353.912 65.648V83H350.672V75.416H342.524V83H339.284V65.648H342.524V73.112H350.672V65.648H353.912ZM376.592 65.648V83H373.748V71.792C373.748 71.344 373.772 70.86 373.82 70.34L368.576 80.192C368.328 80.664 367.948 80.9 367.436 80.9H366.98C366.468 80.9 366.088 80.664 365.84 80.192L360.536 70.304C360.56 70.568 360.58 70.828 360.596 71.084C360.612 71.34 360.62 71.576 360.62 71.792V83H357.776V65.648H360.212C360.356 65.648 360.48 65.652 360.584 65.66C360.688 65.668 360.78 65.688 360.86 65.72C360.948 65.752 361.024 65.804 361.088 65.876C361.16 65.948 361.228 66.044 361.292 66.164L366.488 75.8C366.624 76.056 366.748 76.32 366.86 76.592C366.98 76.864 367.096 77.144 367.208 77.432C367.32 77.136 367.436 76.852 367.556 76.58C367.676 76.3 367.804 76.032 367.94 75.776L373.064 66.164C373.128 66.044 373.196 65.948 373.268 65.876C373.34 65.804 373.416 65.752 373.496 65.72C373.584 65.688 373.68 65.668 373.784 65.66C373.888 65.652 374.012 65.648 374.156 65.648H376.592ZM389.631 76.448L387.519 70.676C387.415 70.42 387.307 70.116 387.195 69.764C387.083 69.412 386.971 69.032 386.859 68.624C386.755 69.032 386.647 69.416 386.535 69.776C386.423 70.128 386.315 70.436 386.211 70.7L384.111 76.448H389.631ZM395.331 83H392.835C392.555 83 392.327 82.932 392.151 82.796C391.975 82.652 391.843 82.476 391.755 82.268L390.459 78.728H383.271L381.975 82.268C381.911 82.452 381.787 82.62 381.603 82.772C381.419 82.924 381.191 83 380.919 83H378.399L385.227 65.648H388.515L395.331 83ZM402.371 73.904C402.979 73.904 403.507 73.828 403.955 73.676C404.411 73.524 404.783 73.316 405.071 73.052C405.367 72.78 405.587 72.46 405.731 72.092C405.875 71.724 405.947 71.32 405.947 70.88C405.947 70 405.655 69.324 405.071 68.852C404.495 68.38 403.611 68.144 402.419 68.144H400.355V73.904H402.371ZM410.675 83H407.759C407.207 83 406.807 82.784 406.559 82.352L402.911 76.796C402.775 76.588 402.623 76.44 402.455 76.352C402.295 76.264 402.055 76.22 401.735 76.22H400.355V83H397.127V65.648H402.419C403.595 65.648 404.603 65.772 405.443 66.02C406.291 66.26 406.983 66.6 407.519 67.04C408.063 67.48 408.463 68.008 408.719 68.624C408.975 69.232 409.103 69.904 409.103 70.64C409.103 71.224 409.015 71.776 408.839 72.296C408.671 72.816 408.423 73.288 408.095 73.712C407.775 74.136 407.375 74.508 406.895 74.828C406.423 75.148 405.883 75.4 405.275 75.584C405.483 75.704 405.675 75.848 405.851 76.016C406.027 76.176 406.187 76.368 406.331 76.592L410.675 83ZM415.777 72.92H416.533C416.837 72.92 417.089 72.88 417.289 72.8C417.489 72.712 417.661 72.576 417.805 72.392L422.593 66.332C422.793 66.076 423.001 65.9 423.217 65.804C423.441 65.7 423.721 65.648 424.057 65.648H426.841L420.997 72.86C420.653 73.3 420.297 73.612 419.929 73.796C420.193 73.892 420.429 74.028 420.637 74.204C420.853 74.372 421.057 74.596 421.249 74.876L427.273 83H424.429C424.045 83 423.757 82.948 423.565 82.844C423.381 82.732 423.225 82.572 423.097 82.364L418.189 75.956C418.037 75.74 417.861 75.588 417.661 75.5C417.461 75.412 417.173 75.368 416.797 75.368H415.777V83H412.549V65.648H415.777V72.92ZM438.242 68.804C438.146 68.972 438.042 69.096 437.93 69.176C437.826 69.248 437.694 69.284 437.534 69.284C437.366 69.284 437.182 69.224 436.982 69.104C436.79 68.976 436.558 68.836 436.286 68.684C436.014 68.532 435.694 68.396 435.326 68.276C434.966 68.148 434.538 68.084 434.042 68.084C433.594 68.084 433.202 68.14 432.866 68.252C432.53 68.356 432.246 68.504 432.014 68.696C431.79 68.888 431.622 69.12 431.51 69.392C431.398 69.656 431.342 69.948 431.342 70.268C431.342 70.676 431.454 71.016 431.678 71.288C431.91 71.56 432.214 71.792 432.59 71.984C432.966 72.176 433.394 72.348 433.874 72.5C434.354 72.652 434.846 72.816 435.35 72.992C435.854 73.16 436.346 73.36 436.826 73.592C437.306 73.816 437.734 74.104 438.11 74.456C438.486 74.8 438.786 75.224 439.01 75.728C439.242 76.232 439.358 76.844 439.358 77.564C439.358 78.348 439.222 79.084 438.95 79.772C438.686 80.452 438.294 81.048 437.774 81.56C437.262 82.064 436.634 82.464 435.89 82.76C435.146 83.048 434.294 83.192 433.334 83.192C432.782 83.192 432.238 83.136 431.702 83.024C431.166 82.92 430.65 82.768 430.154 82.568C429.666 82.368 429.206 82.128 428.774 81.848C428.342 81.568 427.958 81.256 427.622 80.912L428.57 79.364C428.65 79.252 428.754 79.16 428.882 79.088C429.01 79.008 429.146 78.968 429.29 78.968C429.49 78.968 429.706 79.052 429.938 79.22C430.17 79.38 430.446 79.56 430.766 79.76C431.086 79.96 431.458 80.144 431.882 80.312C432.314 80.472 432.83 80.552 433.43 80.552C434.35 80.552 435.062 80.336 435.566 79.904C436.07 79.464 436.322 78.836 436.322 78.02C436.322 77.564 436.206 77.192 435.974 76.904C435.75 76.616 435.45 76.376 435.074 76.184C434.698 75.984 434.27 75.816 433.79 75.68C433.31 75.544 432.822 75.396 432.326 75.236C431.83 75.076 431.342 74.884 430.862 74.66C430.382 74.436 429.954 74.144 429.578 73.784C429.202 73.424 428.898 72.976 428.666 72.44C428.442 71.896 428.33 71.228 428.33 70.436C428.33 69.804 428.454 69.188 428.702 68.588C428.958 67.988 429.326 67.456 429.806 66.992C430.286 66.528 430.878 66.156 431.582 65.876C432.286 65.596 433.094 65.456 434.006 65.456C435.03 65.456 435.974 65.616 436.838 65.936C437.702 66.256 438.438 66.704 439.046 67.28L438.242 68.804ZM464.558 74.324C464.558 75.596 464.346 76.776 463.922 77.864C463.506 78.944 462.914 79.88 462.146 80.672C461.378 81.464 460.454 82.084 459.374 82.532C458.294 82.972 457.094 83.192 455.774 83.192C454.462 83.192 453.266 82.972 452.186 82.532C451.106 82.084 450.178 81.464 449.402 80.672C448.634 79.88 448.038 78.944 447.614 77.864C447.19 76.776 446.978 75.596 446.978 74.324C446.978 73.052 447.19 71.876 447.614 70.796C448.038 69.708 448.634 68.768 449.402 67.976C450.178 67.184 451.106 66.568 452.186 66.128C453.266 65.68 454.462 65.456 455.774 65.456C456.654 65.456 457.482 65.56 458.258 65.768C459.034 65.968 459.746 66.256 460.394 66.632C461.042 67 461.622 67.452 462.134 67.988C462.654 68.516 463.094 69.108 463.454 69.764C463.814 70.42 464.086 71.132 464.27 71.9C464.462 72.668 464.558 73.476 464.558 74.324ZM461.258 74.324C461.258 73.372 461.13 72.52 460.874 71.768C460.618 71.008 460.254 70.364 459.782 69.836C459.31 69.308 458.734 68.904 458.054 68.624C457.382 68.344 456.622 68.204 455.774 68.204C454.926 68.204 454.162 68.344 453.482 68.624C452.81 68.904 452.234 69.308 451.754 69.836C451.282 70.364 450.918 71.008 450.662 71.768C450.406 72.52 450.278 73.372 450.278 74.324C450.278 75.276 450.406 76.132 450.662 76.892C450.918 77.644 451.282 78.284 451.754 78.812C452.234 79.332 452.81 79.732 453.482 80.012C454.162 80.292 454.926 80.432 455.774 80.432C456.622 80.432 457.382 80.292 458.054 80.012C458.734 79.732 459.31 79.332 459.782 78.812C460.254 78.284 460.618 77.644 460.874 76.892C461.13 76.132 461.258 75.276 461.258 74.324ZM470.633 68.216V73.352H477.137V75.932H470.633V83H467.393V65.648H478.337V68.216H470.633ZM491.481 73.904C492.089 73.904 492.617 73.828 493.065 73.676C493.521 73.524 493.893 73.316 494.181 73.052C494.477 72.78 494.697 72.46 494.841 72.092C494.985 71.724 495.057 71.32 495.057 70.88C495.057 70 494.765 69.324 494.181 68.852C493.605 68.38 492.721 68.144 491.529 68.144H489.465V73.904H491.481ZM499.785 83H496.869C496.317 83 495.917 82.784 495.669 82.352L492.021 76.796C491.885 76.588 491.733 76.44 491.565 76.352C491.405 76.264 491.165 76.22 490.845 76.22H489.465V83H486.237V65.648H491.529C492.705 65.648 493.713 65.772 494.553 66.02C495.401 66.26 496.093 66.6 496.629 67.04C497.173 67.48 497.573 68.008 497.829 68.624C498.085 69.232 498.213 69.904 498.213 70.64C498.213 71.224 498.125 71.776 497.949 72.296C497.781 72.816 497.533 73.288 497.205 73.712C496.885 74.136 496.485 74.508 496.005 74.828C495.533 75.148 494.993 75.4 494.385 75.584C494.593 75.704 494.785 75.848 494.961 76.016C495.137 76.176 495.297 76.368 495.441 76.592L499.785 83ZM504.899 68.216V73.028H510.971V75.512H504.899V80.42H512.603V83H501.659V65.648H512.603V68.216H504.899ZM524.631 76.448L522.519 70.676C522.415 70.42 522.307 70.116 522.195 69.764C522.083 69.412 521.971 69.032 521.859 68.624C521.755 69.032 521.647 69.416 521.535 69.776C521.423 70.128 521.315 70.436 521.211 70.7L519.111 76.448H524.631ZM530.331 83H527.835C527.555 83 527.327 82.932 527.151 82.796C526.975 82.652 526.843 82.476 526.755 82.268L525.459 78.728H518.271L516.975 82.268C516.911 82.452 516.787 82.62 516.603 82.772C516.419 82.924 516.191 83 515.919 83H513.399L520.227 65.648H523.515L530.331 83ZM542.291 80.336V83H532.127V65.648H535.355V80.336H542.291ZM542.438 74.516H548.654V76.988H542.438V74.516ZM574.598 65.648L569.21 83H566.294L562.502 71.144C562.398 70.856 562.302 70.504 562.214 70.088C562.166 70.288 562.118 70.476 562.07 70.652C562.022 70.828 561.97 70.992 561.914 71.144L558.086 83H555.158L549.782 65.648H552.482C552.762 65.648 552.994 65.716 553.178 65.852C553.37 65.98 553.498 66.156 553.562 66.38L556.514 76.76C556.578 77.016 556.638 77.296 556.694 77.6C556.758 77.896 556.822 78.208 556.886 78.536C556.95 78.2 557.018 77.884 557.09 77.588C557.17 77.292 557.254 77.016 557.342 76.76L560.75 66.38C560.814 66.196 560.938 66.028 561.122 65.876C561.314 65.724 561.546 65.648 561.818 65.648H562.766C563.046 65.648 563.274 65.716 563.45 65.852C563.626 65.988 563.758 66.164 563.846 66.38L567.242 76.76C567.41 77.256 567.562 77.828 567.698 78.476C567.802 77.844 567.918 77.272 568.046 76.76L570.998 66.38C571.046 66.18 571.166 66.008 571.358 65.864C571.558 65.72 571.794 65.648 572.066 65.648H574.598ZM592.925 74.324C592.925 75.596 592.713 76.776 592.289 77.864C591.873 78.944 591.281 79.88 590.513 80.672C589.745 81.464 588.821 82.084 587.741 82.532C586.661 82.972 585.461 83.192 584.141 83.192C582.829 83.192 581.633 82.972 580.553 82.532C579.473 82.084 578.545 81.464 577.769 80.672C577.001 79.88 576.405 78.944 575.981 77.864C575.557 76.776 575.345 75.596 575.345 74.324C575.345 73.052 575.557 71.876 575.981 70.796C576.405 69.708 577.001 68.768 577.769 67.976C578.545 67.184 579.473 66.568 580.553 66.128C581.633 65.68 582.829 65.456 584.141 65.456C585.021 65.456 585.849 65.56 586.625 65.768C587.401 65.968 588.113 66.256 588.761 66.632C589.409 67 589.989 67.452 590.501 67.988C591.021 68.516 591.461 69.108 591.821 69.764C592.181 70.42 592.453 71.132 592.637 71.9C592.829 72.668 592.925 73.476 592.925 74.324ZM589.625 74.324C589.625 73.372 589.497 72.52 589.241 71.768C588.985 71.008 588.621 70.364 588.149 69.836C587.677 69.308 587.101 68.904 586.421 68.624C585.749 68.344 584.989 68.204 584.141 68.204C583.293 68.204 582.529 68.344 581.849 68.624C581.177 68.904 580.601 69.308 580.121 69.836C579.649 70.364 579.285 71.008 579.029 71.768C578.773 72.52 578.645 73.372 578.645 74.324C578.645 75.276 578.773 76.132 579.029 76.892C579.285 77.644 579.649 78.284 580.121 78.812C580.601 79.332 581.177 79.732 581.849 80.012C582.529 80.292 583.293 80.432 584.141 80.432C584.989 80.432 585.749 80.292 586.421 80.012C587.101 79.732 587.677 79.332 588.149 78.812C588.621 78.284 588.985 77.644 589.241 76.892C589.497 76.132 589.625 75.276 589.625 74.324ZM601.004 73.904C601.612 73.904 602.14 73.828 602.588 73.676C603.044 73.524 603.416 73.316 603.704 73.052C604 72.78 604.22 72.46 604.364 72.092C604.508 71.724 604.58 71.32 604.58 70.88C604.58 70 604.288 69.324 603.704 68.852C603.128 68.38 602.244 68.144 601.052 68.144H598.988V73.904H601.004ZM609.308 83H606.392C605.84 83 605.44 82.784 605.192 82.352L601.544 76.796C601.408 76.588 601.256 76.44 601.088 76.352C600.928 76.264 600.688 76.22 600.368 76.22H598.988V83H595.76V65.648H601.052C602.228 65.648 603.236 65.772 604.076 66.02C604.924 66.26 605.616 66.6 606.152 67.04C606.696 67.48 607.096 68.008 607.352 68.624C607.608 69.232 607.736 69.904 607.736 70.64C607.736 71.224 607.648 71.776 607.472 72.296C607.304 72.816 607.056 73.288 606.728 73.712C606.408 74.136 606.008 74.508 605.528 74.828C605.056 75.148 604.516 75.4 603.908 75.584C604.116 75.704 604.308 75.848 604.484 76.016C604.66 76.176 604.82 76.368 604.964 76.592L609.308 83ZM621.346 80.336V83H611.182V65.648H614.41V80.336H621.346ZM639.059 74.324C639.059 75.596 638.847 76.764 638.423 77.828C637.999 78.892 637.403 79.808 636.635 80.576C635.867 81.344 634.943 81.94 633.863 82.364C632.783 82.788 631.583 83 630.263 83H623.651V65.648H630.263C631.583 65.648 632.783 65.864 633.863 66.296C634.943 66.72 635.867 67.316 636.635 68.084C637.403 68.844 637.999 69.756 638.423 70.82C638.847 71.884 639.059 73.052 639.059 74.324ZM635.747 74.324C635.747 73.372 635.619 72.52 635.363 71.768C635.115 71.008 634.751 70.368 634.271 69.848C633.799 69.32 633.223 68.916 632.543 68.636C631.871 68.356 631.111 68.216 630.263 68.216H626.891V80.432H630.263C631.111 80.432 631.871 80.292 632.543 80.012C633.223 79.732 633.799 79.332 634.271 78.812C634.751 78.284 635.115 77.644 635.363 76.892C635.619 76.132 635.747 75.276 635.747 74.324ZM650.985 68.216V73.352H657.489V75.932H650.985V83H647.745V65.648H658.689V68.216H650.985ZM666.582 73.904C667.19 73.904 667.718 73.828 668.166 73.676C668.622 73.524 668.994 73.316 669.282 73.052C669.578 72.78 669.798 72.46 669.942 72.092C670.086 71.724 670.158 71.32 670.158 70.88C670.158 70 669.866 69.324 669.282 68.852C668.706 68.38 667.822 68.144 666.63 68.144H664.566V73.904H666.582ZM674.886 83H671.97C671.418 83 671.018 82.784 670.77 82.352L667.122 76.796C666.986 76.588 666.834 76.44 666.666 76.352C666.506 76.264 666.266 76.22 665.946 76.22H664.566V83H661.338V65.648H666.63C667.806 65.648 668.814 65.772 669.654 66.02C670.502 66.26 671.194 66.6 671.73 67.04C672.274 67.48 672.674 68.008 672.93 68.624C673.186 69.232 673.314 69.904 673.314 70.64C673.314 71.224 673.226 71.776 673.05 72.296C672.882 72.816 672.634 73.288 672.306 73.712C671.986 74.136 671.586 74.508 671.106 74.828C670.634 75.148 670.094 75.4 669.486 75.584C669.694 75.704 669.886 75.848 670.062 76.016C670.238 76.176 670.398 76.368 670.542 76.592L674.886 83ZM693.074 74.324C693.074 75.596 692.862 76.776 692.438 77.864C692.022 78.944 691.43 79.88 690.662 80.672C689.894 81.464 688.97 82.084 687.89 82.532C686.81 82.972 685.61 83.192 684.29 83.192C682.978 83.192 681.782 82.972 680.702 82.532C679.622 82.084 678.694 81.464 677.918 80.672C677.15 79.88 676.554 78.944 676.13 77.864C675.706 76.776 675.494 75.596 675.494 74.324C675.494 73.052 675.706 71.876 676.13 70.796C676.554 69.708 677.15 68.768 677.918 67.976C678.694 67.184 679.622 66.568 680.702 66.128C681.782 65.68 682.978 65.456 684.29 65.456C685.17 65.456 685.998 65.56 686.774 65.768C687.55 65.968 688.262 66.256 688.91 66.632C689.558 67 690.138 67.452 690.65 67.988C691.17 68.516 691.61 69.108 691.97 69.764C692.33 70.42 692.602 71.132 692.786 71.9C692.978 72.668 693.074 73.476 693.074 74.324ZM689.774 74.324C689.774 73.372 689.646 72.52 689.39 71.768C689.134 71.008 688.77 70.364 688.298 69.836C687.826 69.308 687.25 68.904 686.57 68.624C685.898 68.344 685.138 68.204 684.29 68.204C683.442 68.204 682.678 68.344 681.998 68.624C681.326 68.904 680.75 69.308 680.27 69.836C679.798 70.364 679.434 71.008 679.178 71.768C678.922 72.52 678.794 73.372 678.794 74.324C678.794 75.276 678.922 76.132 679.178 76.892C679.434 77.644 679.798 78.284 680.27 78.812C680.75 79.332 681.326 79.732 681.998 80.012C682.678 80.292 683.442 80.432 684.29 80.432C685.138 80.432 685.898 80.292 686.57 80.012C687.25 79.732 687.826 79.332 688.298 78.812C688.77 78.284 689.134 77.644 689.39 76.892C689.646 76.132 689.774 75.276 689.774 74.324ZM710.537 65.648V83H708.881C708.625 83 708.409 82.96 708.233 82.88C708.065 82.792 707.901 82.648 707.741 82.448L698.681 70.88C698.729 71.408 698.753 71.896 698.753 72.344V83H695.909V65.648H697.601C697.737 65.648 697.853 65.656 697.949 65.672C698.053 65.68 698.141 65.704 698.213 65.744C698.293 65.776 698.369 65.828 698.441 65.9C698.513 65.964 698.593 66.052 698.681 66.164L707.777 77.78C707.753 77.5 707.733 77.224 707.717 76.952C707.701 76.68 707.693 76.428 707.693 76.196V65.648H710.537ZM726.521 68.3H721.289V83H718.061V68.3H712.829V65.648H726.521V68.3ZM732.031 68.216V73.028H738.103V75.512H732.031V80.42H739.735V83H728.791V65.648H739.735V68.216H732.031ZM757.224 65.648V83H755.568C755.312 83 755.096 82.96 754.92 82.88C754.752 82.792 754.588 82.648 754.428 82.448L745.368 70.88C745.416 71.408 745.44 71.896 745.44 72.344V83H742.596V65.648H744.288C744.424 65.648 744.54 65.656 744.636 65.672C744.74 65.68 744.828 65.704 744.9 65.744C744.98 65.776 745.056 65.828 745.128 65.9C745.2 65.964 745.28 66.052 745.368 66.164L754.464 77.78C754.44 77.5 754.42 77.224 754.404 76.952C754.388 76.68 754.38 76.428 754.38 76.196V65.648H757.224ZM776.496 74.324C776.496 75.596 776.284 76.764 775.86 77.828C775.436 78.892 774.84 79.808 774.072 80.576C773.304 81.344 772.38 81.94 771.3 82.364C770.22 82.788 769.02 83 767.7 83H761.088V65.648H767.7C769.02 65.648 770.22 65.864 771.3 66.296C772.38 66.72 773.304 67.316 774.072 68.084C774.84 68.844 775.436 69.756 775.86 70.82C776.284 71.884 776.496 73.052 776.496 74.324ZM773.184 74.324C773.184 73.372 773.056 72.52 772.8 71.768C772.552 71.008 772.188 70.368 771.708 69.848C771.236 69.32 770.66 68.916 769.98 68.636C769.308 68.356 768.548 68.216 767.7 68.216H764.328V80.432H767.7C768.548 80.432 769.308 80.292 769.98 80.012C770.66 79.732 771.236 79.332 771.708 78.812C772.188 78.284 772.552 77.644 772.8 76.892C773.056 76.132 773.184 75.276 773.184 74.324ZM793.553 76.448L791.441 70.676C791.337 70.42 791.229 70.116 791.117 69.764C791.005 69.412 790.893 69.032 790.781 68.624C790.677 69.032 790.569 69.416 790.457 69.776C790.345 70.128 790.237 70.436 790.133 70.7L788.033 76.448H793.553ZM799.253 83H796.757C796.477 83 796.249 82.932 796.073 82.796C795.897 82.652 795.765 82.476 795.677 82.268L794.381 78.728H787.193L785.897 82.268C785.833 82.452 785.709 82.62 785.525 82.772C785.341 82.924 785.113 83 784.841 83H782.321L789.149 65.648H792.437L799.253 83ZM806.689 74.372C807.281 74.372 807.797 74.3 808.237 74.156C808.677 74.004 809.041 73.792 809.329 73.52C809.625 73.24 809.845 72.904 809.989 72.512C810.133 72.112 810.205 71.668 810.205 71.18C810.205 70.716 810.133 70.296 809.989 69.92C809.845 69.544 809.629 69.224 809.341 68.96C809.053 68.696 808.689 68.496 808.249 68.36C807.809 68.216 807.289 68.144 806.689 68.144H804.277V74.372H806.689ZM806.689 65.648C807.849 65.648 808.853 65.784 809.701 66.056C810.549 66.328 811.249 66.708 811.801 67.196C812.353 67.684 812.761 68.268 813.025 68.948C813.297 69.628 813.433 70.372 813.433 71.18C813.433 72.02 813.293 72.792 813.013 73.496C812.733 74.192 812.313 74.792 811.753 75.296C811.193 75.8 810.489 76.192 809.641 76.472C808.801 76.752 807.817 76.892 806.689 76.892H804.277V83H801.049V65.648H806.689ZM821.549 74.372C822.141 74.372 822.657 74.3 823.097 74.156C823.537 74.004 823.901 73.792 824.189 73.52C824.485 73.24 824.705 72.904 824.849 72.512C824.993 72.112 825.065 71.668 825.065 71.18C825.065 70.716 824.993 70.296 824.849 69.92C824.705 69.544 824.489 69.224 824.201 68.96C823.913 68.696 823.549 68.496 823.109 68.36C822.669 68.216 822.149 68.144 821.549 68.144H819.137V74.372H821.549ZM821.549 65.648C822.709 65.648 823.713 65.784 824.561 66.056C825.409 66.328 826.109 66.708 826.661 67.196C827.213 67.684 827.621 68.268 827.885 68.948C828.157 69.628 828.293 70.372 828.293 71.18C828.293 72.02 828.153 72.792 827.873 73.496C827.593 74.192 827.173 74.792 826.613 75.296C826.053 75.8 825.349 76.192 824.501 76.472C823.661 76.752 822.677 76.892 821.549 76.892H819.137V83H815.909V65.648H821.549ZM840.008 68.804C839.912 68.972 839.808 69.096 839.696 69.176C839.592 69.248 839.46 69.284 839.3 69.284C839.132 69.284 838.948 69.224 838.748 69.104C838.556 68.976 838.324 68.836 838.052 68.684C837.78 68.532 837.46 68.396 837.092 68.276C836.732 68.148 836.304 68.084 835.808 68.084C835.36 68.084 834.968 68.14 834.632 68.252C834.296 68.356 834.012 68.504 833.78 68.696C833.556 68.888 833.388 69.12 833.276 69.392C833.164 69.656 833.108 69.948 833.108 70.268C833.108 70.676 833.22 71.016 833.444 71.288C833.676 71.56 833.98 71.792 834.356 71.984C834.732 72.176 835.16 72.348 835.64 72.5C836.12 72.652 836.612 72.816 837.116 72.992C837.62 73.16 838.112 73.36 838.592 73.592C839.072 73.816 839.5 74.104 839.876 74.456C840.252 74.8 840.552 75.224 840.776 75.728C841.008 76.232 841.124 76.844 841.124 77.564C841.124 78.348 840.988 79.084 840.716 79.772C840.452 80.452 840.06 81.048 839.54 81.56C839.028 82.064 838.4 82.464 837.656 82.76C836.912 83.048 836.06 83.192 835.1 83.192C834.548 83.192 834.004 83.136 833.468 83.024C832.932 82.92 832.416 82.768 831.92 82.568C831.432 82.368 830.972 82.128 830.54 81.848C830.108 81.568 829.724 81.256 829.388 80.912L830.336 79.364C830.416 79.252 830.52 79.16 830.648 79.088C830.776 79.008 830.912 78.968 831.056 78.968C831.256 78.968 831.472 79.052 831.704 79.22C831.936 79.38 832.212 79.56 832.532 79.76C832.852 79.96 833.224 80.144 833.648 80.312C834.08 80.472 834.596 80.552 835.196 80.552C836.116 80.552 836.828 80.336 837.332 79.904C837.836 79.464 838.088 78.836 838.088 78.02C838.088 77.564 837.972 77.192 837.74 76.904C837.516 76.616 837.216 76.376 836.84 76.184C836.464 75.984 836.036 75.816 835.556 75.68C835.076 75.544 834.588 75.396 834.092 75.236C833.596 75.076 833.108 74.884 832.628 74.66C832.148 74.436 831.72 74.144 831.344 73.784C830.968 73.424 830.664 72.976 830.432 72.44C830.208 71.896 830.096 71.228 830.096 70.436C830.096 69.804 830.22 69.188 830.468 68.588C830.724 67.988 831.092 67.456 831.572 66.992C832.052 66.528 832.644 66.156 833.348 65.876C834.052 65.596 834.86 65.456 835.772 65.456C836.796 65.456 837.74 65.616 838.604 65.936C839.468 66.256 840.204 66.704 840.812 67.28L840.008 68.804Z" fill="#D2D2D2"/>
<defs>
<linearGradient id="paint0_linear_12_800" x1="58.0909" y1="31.2727" x2="7.18182" y2="79.4545" gradientUnits="userSpaceOnUse">
<stop stop-color="white"/>
<stop offset="1" stop-color="white"/>
</linearGradient>
<linearGradient id="paint1_linear_12_800" x1="59.5" y1="30" x2="3.5" y2="83" gradientUnits="userSpaceOnUse">
<stop stop-color="#A73FC1"/>
<stop offset="1" stop-color="#C13F9D"/>
</linearGradient>
</defs>
</svg>
