<?xml version="1.0" standalone="no"?>
<!DOCTYPE svg PUBLIC "-//W3C//DTD SVG 20010904//EN"
 "http://www.w3.org/TR/2001/REC-SVG-20010904/DTD/svg10.dtd">
<svg version="1.0" xmlns="http://www.w3.org/2000/svg"
 width="520.000000pt" height="520.000000pt" viewBox="0 0 520.000000 520.000000"
 preserveAspectRatio="xMidYMid meet">
<metadata>
Created by potrace 1.14, written by Peter Selinger 2001-2017
</metadata>
<g transform="translate(0.000000,520.000000) scale(0.100000,-0.100000)"
fill="#000000" stroke="none">
<path d="M618 5190 c-229 -39 -435 -194 -539 -405 -81 -165 -74 32 -74 -2190
l0 -1980 23 -75 c66 -210 199 -368 387 -461 165 -81 -32 -74 2190 -74 l1980 0
75 23 c210 66 368 199 461 387 81 165 74 -32 74 2190 l0 1980 -23 75 c-66 210
-199 368 -387 461 -166 81 38 74 -2160 75 -1078 1 -1981 -2 -2007 -6z m3158
-1111 c158 -29 274 -145 303 -304 15 -82 15 -2268 0 -2351 -29 -160 -145 -274
-308 -304 -140 -25 -289 42 -369 167 -64 100 -62 51 -62 1313 0 1236 -1 1211
52 1299 53 89 142 154 240 176 80 17 74 17 144 4z m-1019 -773 c76 -35 144
-103 181 -184 l27 -57 3 -814 c2 -725 1 -820 -14 -870 -45 -157 -185 -262
-349 -264 -123 -2 -229 51 -304 151 -74 98 -72 75 -69 987 l3 810 26 55 c45
96 124 170 219 204 72 26 199 18 277 -18z m-1111 -1116 c79 -38 154 -119 185
-198 21 -52 24 -76 27 -289 2 -150 0 -252 -8 -287 -59 -287 -401 -397 -619
-201 -51 47 -97 136 -111 217 -8 44 -10 145 -8 285 4 196 6 224 27 275 26 67
95 148 157 184 107 63 240 68 350 14z"/>
</g>
</svg>
